<?xml version="1.0" encoding="utf-8"?>
<!-- Generator: Adobe Illustrator 23.0.6, SVG Export Plug-In . SVG Version: 6.00 Build 0)  -->
<svg version="1.1" id="Layer_1" xmlns="http://www.w3.org/2000/svg" xmlns:xlink="http://www.w3.org/1999/xlink" x="0px" y="0px"
	 viewBox="0 0 288 288" style="enable-background:new 0 0 288 288;" xml:space="preserve">
<style type="text/css">
	.st0{fill:#939598;}
	.st1{fill:#FBC9C3;}
</style>
<rect class="st0" width="288" height="288"/>
<g>
	<g>
		<path class="st1" d="M136.9,112.2c-0.1-1.4,0.3-2.6,0.3-3.9c0-2.6-1.2-4.8-1.3-6.9c-0.2-1.9,0.6-4,0.8-6.2c0.3-2.4,0.5-5,0.7-7.6
			c-0.1,0.4-0.1,0.7-0.2,1.1c-1.8,9.9-5.3,19.5-10.3,27c-3,4.5-7.4,11-15.9,9.9c-5.2-0.7-9.1-5.7-11.4-9.7c-2.7-4.6-4.8-9.2-5.3-15
			c-0.9-10.9,2.6-20.1,2.7-29.5C92.1,84,91,99.9,91,116.6c-0.8,1.5-1.4,2.4-3.2,2.8c-3.2-3.2-4.7-7.9-7.2-11.8
			c-2.4-3.9-4.6-7.8-6.9-11.8c-4.5-7.9-9.3-15.9-13-24.4l0.3-0.2c5.5-1.8,11.5-3.2,16.9-5.1l0.4-0.3c4.8-1.2,9.1-3.5,13.4-5.3
			c1.4-0.6,3.3-0.7,4-2.1c-0.3-0.5-2.5-6.5-2.6-6.8c0-0.2-0.1-0.4-0.2-0.5l0-0.1l0-0.1c0.2-0.3,0.4-0.6,0.5-0.9l0-0.1
			c-0.2-0.6-0.4-1.1-0.3-1.8l-0.6-3.4c0-0.5-0.1-1.1-0.2-1.6c0-0.1,0.1-0.2,0.1-0.2c0.1,0,0.2,0,0.2,0.1c0.1,0.5,0.1,1.1,0.2,1.6
			c0.1,1.1,0.2,2.2,0.7,3.2c0.6,0,0.7,0.5,1.4,0.5c-0.1,0.9-0.8,1.2-1.3,1.8l-0.1,0.1c-0.1,0.2-0.3,0.5-0.5,0.8
			c0.1,0.2,0.1,0.4,0.2,0.5l2.3,6.8l0,0l0,0l0,0c0.2,2.1,1.2,3.5,1.3,5.7c1.1-0.7,1-1.8,1.6-2.8c0.5-0.8,1.2-1.7,1.9-2.5
			c1.6-2.2,4-4.6,6.6-6.2c5.1,2.2,10.7,3.1,15.6,5.1c4.8,1.9,9.1,4.2,13.7,6.1c-1.3-3.8-3.1-7.2-4.9-10.7c-1.2,0.1-2.1-1.3-3.2-2.1
			c-3.4-2.3-7.9-4.4-11.9-6.2c3.5-2.2,7.4-4.2,10.1-7.1c-1-1.6-0.4-3.1-0.5-4.6c-0.4-4.9-3.1-8.8-2.1-15.2c-0.7-0.7-1.6-1.3-2.4-1.8
			c-5.3-0.2-10.4-1.5-15.9-1.8c-7.4-0.5-15.3,1-21.8,2.3c0.1,0,0.1,0.1,0.1,0.1c-0.1,0.3,0,0.6,0.1,0.9c0.1,0.2,6.6,15.3,6.6,15.5
			c0,0.1,0,0.1-0.1,0.2c0,0,0,0,0,0c0,0,0,0,0,0c0,0.1-0.3,0.1-0.5,0.4c9-2.1,17.8-4.5,28.4-5.3c1.1,0,0,0.4,0,0.7
			c-5.2,3.5-10.9,6.7-15.1,11.1C96.9,38.3,90.1,37,86,33.4l0-0.1c-0.1,0-0.3-0.1-0.4-0.1c-0.1,0-0.2,0-0.3-0.1
			c-0.2,0-0.3-0.2-0.2-0.3c0.1-0.1,0.2-0.2,0.4-0.2c0.1,0,0.1,0,0.2,0.1c0.1,0,0.1,0,0.2,0l0,0c1.7-0.2,2.6,0.4,4.2,0.2
			c0,0,0,0,0.1,0.1c-0.6-1.4-6.5-15.2-6.6-15.3c-0.1-0.3-0.2-0.6-0.1-1c0,0,0,0,0-0.1c-0.7,0.1-1.5,0.3-2.2,0.4h-0.3
			c-0.7-1.7-5.3-1.7-8.5-1.8c-5.9-0.2-12.9,1-17.8,0.9c0,4.8-2.1,7.9-2.4,12.5c-0.5,1,1.1,0.3,0.8,1.2c-0.3,1-0.9,1.7-0.8,3
			c11.7,4.9,26.1,7.5,35.5,14.3l0.3,0.2c-8.5,7.2-22.5,9.9-33.9,14.5c-3.2-6.7-5.6-14-8.5-21c-3.3,1.1-7.1,3.8-10.1,6
			c-2.8-1.4-4.1-0.4-6.1,1.2c-0.9,0.7-1.9,1.4-2.4,2.1c-2.3,3.6-0.8,9.5-0.8,13.8c0.6,0.8,2.2,0.9,3.2,1.4c2.2,3.4,4.3,6.8,7.2,9.5
			c1.7,1.6,3.9,2.7,5.6,4.4c1.5,1.5,3.1,3.6,4.5,5.5c1.4,1.9,3.1,4,4,6c2.7,5.9,2.6,16.1,2.1,24.2c-0.1,2.1-0.7,4.1-0.8,6.2
			c-0.2,3.3,0.1,6.7,0.3,10.1c0.4,8.6-0.2,17,4.5,22.8c5.1,0.6,13.5,1.6,17.5,0c4.1-1.7,6.8-9.5,8.2-13.8c1.9-6,3.5-11.9,5-16.6
			l0.3,0.1l0.3-0.1c1.2,10.9,5.7,20.8,10.6,29.5c1.4,2.4,3.4,7.1,5.6,8.1c2.3,1.1,9.4,0.8,13.3,0.7c2.2-0.1,7,0,9-0.7
			c1.6-0.6,3.3-4,4.8-6.7c4.5-8.4,7.7-19.3,6.9-31.6C138.2,119.2,137,115.6,136.9,112.2z M91.9,38.9c0.1,0,0.2,0,0.2,0.1
			c0.3,0.7,0.4,1.5,0.5,2.2l0,0.3c0,0.1-0.1,0.1-0.1,0.2c0,0,0,0,0,0c-0.1,0-0.1-0.1-0.2-0.1l0-0.3c-0.1-0.7-0.2-1.5-0.5-2.2
			C91.8,39,91.8,38.9,91.9,38.9z"/>
	</g>
	<g>
		<path class="st1" d="M136.8,64.4l0.2-0.1c0.2-0.4,0.1-0.8-0.1-1.2c-0.1-0.3-0.3-0.7-0.2-1c0-0.1,0-0.1-0.1-0.2
			c-0.1,0-0.2,0-0.2,0.1c-0.1,0.4,0.1,0.8,0.2,1.1c0.1,0.3,0.2,0.6,0.2,0.8c0,0,0.1,0,0.1,0.1L136.8,64.4z"/>
	</g>
</g>
</svg>
